<?xml version="1.0" standalone="no"?>
<!DOCTYPE svg PUBLIC "-//W3C//DTD SVG 20010904//EN"
 "http://www.w3.org/TR/2001/REC-SVG-20010904/DTD/svg10.dtd">
<svg version="1.0" xmlns="http://www.w3.org/2000/svg"
 width="260.000000pt" height="260.000000pt" viewBox="0 0 260.000000 260.000000"
 preserveAspectRatio="xMidYMid meet">
<metadata>
Created by potrace 1.11, written by Peter Selinger 2001-2013
</metadata>
<g transform="translate(0.000000,260.000000) scale(0.100000,-0.100000)"
fill="#000000" stroke="none">
<path d="M453 2345 c-73 -20 -190 -81 -240 -125 -82 -71 -131 -142 -199 -283
-16 -33 -20 -387 -5 -387 5 0 12 -14 16 -31 11 -48 54 -138 101 -209 53 -81
187 -213 211 -208 38 7 22 38 -74 134 -105 106 -152 184 -189 309 -26 91 -24
308 4 393 53 158 190 289 359 343 71 22 191 33 226 20 38 -15 119 5 115 27 -2
9 -14 19 -28 23 -45 13 -243 8 -297 -6z"/>
<path d="M1298 2039 c-19 -10 -25 -49 -8 -49 11 0 68 -57 219 -219 110 -119
156 -159 167 -149 3 3 -19 34 -48 68 -175 206 -264 315 -277 338 -13 24 -27
27 -53 11z"/>
<path d="M480 2015 c-11 -13 -11 -20 -2 -33 45 -62 50 -74 42 -104 -7 -24 -6
-29 7 -26 9 2 25 15 36 30 l20 27 -29 58 c-31 61 -52 74 -74 48z"/>
<path d="M1148 1675 c15 -27 99 -123 252 -285 70 -74 189 -202 265 -285 76
-82 166 -180 201 -216 35 -36 64 -75 64 -85 0 -17 -65 -89 -97 -107 -6 -4 -19
0 -28 10 -31 30 -110 93 -117 93 -17 0 -6 -22 42 -79 28 -33 50 -64 50 -69 0
-5 -27 -33 -60 -62 -32 -29 -61 -55 -64 -58 -3 -2 -34 18 -68 47 -86 70 -120
70 -55 1 17 -20 43 -47 55 -62 l24 -26 -54 -51 c-29 -28 -62 -51 -73 -51 -11
1 -38 19 -60 40 -38 38 -71 57 -81 47 -3 -2 18 -32 46 -65 27 -33 50 -64 50
-70 0 -11 -104 -102 -117 -102 -5 0 -49 38 -98 85 -49 47 -96 84 -105 83 -25
-5 -24 -44 2 -62 12 -9 62 -55 111 -103 65 -65 91 -85 101 -78 14 10 116 103
396 360 90 83 191 174 224 204 34 30 64 59 68 66 4 6 -24 42 -68 86 -42 41
-153 152 -247 248 -428 432 -533 538 -551 551 -18 14 -18 14 -8 -5z"/>
<path d="M622 1366 c2 -7 27 -34 57 -60 68 -58 97 -60 140 -11 48 55 38 69
-30 41 -30 -13 -37 -12 -71 5 -20 10 -39 23 -43 29 -10 16 -57 12 -53 -4z"/>
<path d="M830 1166 c0 -16 13 -34 38 -54 57 -45 77 -53 105 -43 28 11 67 57
67 79 0 15 -10 14 -67 -9 -29 -12 -35 -11 -63 9 -16 12 -41 27 -55 32 -22 9
-25 7 -25 -14z"/>
<path d="M504 975 c-4 -8 -3 -26 0 -40 9 -35 56 -36 56 -2 0 22 -27 57 -44 57
-3 0 -9 -7 -12 -15z"/>
<path d="M1020 978 c1 -34 92 -108 132 -108 29 0 88 46 88 69 0 15 -43 14 -75
-1 -23 -10 -31 -8 -71 20 -47 33 -74 41 -74 20z"/>
<path d="M390 890 c0 -5 5 -10 10 -10 6 0 10 5 10 10 0 6 -4 10 -10 10 -5 0
-10 -4 -10 -10z"/>
<path d="M480 829 c0 -5 5 -7 10 -4 6 3 10 8 10 11 0 2 -4 4 -10 4 -5 0 -10
-5 -10 -11z"/>
<path d="M1216 791 c-11 -17 5 -39 51 -75 55 -43 90 -46 132 -10 48 40 39 75
-13 48 -37 -18 -70 -18 -87 2 -11 14 -61 44 -73 44 -3 0 -7 -4 -10 -9z"/>
<path d="M695 780 c-10 -17 5 -49 26 -55 19 -6 49 9 49 26 0 28 -61 51 -75 29z"/>
<path d="M893 585 c-8 -21 26 -57 51 -53 12 2 22 10 24 19 7 37 -62 68 -75 34z"/>
</g>
</svg>
